<mxfile host="app.diagrams.net" modified="2022-01-30T09:45:19.862Z" agent="5.0 (Windows NT 10.0; Win64; x64) AppleWebKit/537.36 (KHTML, like Gecko) Chrome/97.0.4692.99 Safari/537.36" etag="33CSLV62WVU6aONfkwRA" version="16.5.2" type="github">
  <diagram id="wU1skhxQD_yNddPGJ0A4" name="第 1 页">
    <mxGraphModel dx="1422" dy="762" grid="1" gridSize="10" guides="1" tooltips="1" connect="1" arrows="1" fold="1" page="1" pageScale="1" pageWidth="827" pageHeight="1169" math="0" shadow="0">
      <root>
        <mxCell id="0" />
        <mxCell id="1" parent="0" />
        <mxCell id="lZY1SaBGRvof_SRD84yj-26" value="" style="rounded=1;whiteSpace=wrap;html=1;fontFamily=Helvetica;fontSize=12;dashed=1;fillColor=#f5f5f5;fontColor=#333333;strokeColor=#666666;" vertex="1" parent="1">
          <mxGeometry x="160" y="280" width="500" height="110" as="geometry" />
        </mxCell>
        <mxCell id="lZY1SaBGRvof_SRD84yj-19" value="adc-rpa" style="rounded=0;whiteSpace=wrap;html=1;fontFamily=Helvetica;fontSize=12;fillColor=#dae8fc;strokeColor=#6c8ebf;" vertex="1" parent="1">
          <mxGeometry x="180" y="300" width="100" height="50" as="geometry" />
        </mxCell>
        <mxCell id="lZY1SaBGRvof_SRD84yj-21" value="adc-rpa-web" style="rounded=0;whiteSpace=wrap;html=1;fontFamily=Helvetica;fontSize=12;fillColor=#d5e8d4;strokeColor=#82b366;" vertex="1" parent="1">
          <mxGeometry x="300" y="300" width="100" height="50" as="geometry" />
        </mxCell>
        <mxCell id="lZY1SaBGRvof_SRD84yj-23" value="adc-studio-rpa" style="rounded=0;whiteSpace=wrap;html=1;fontFamily=Helvetica;fontSize=12;fillColor=#dae8fc;strokeColor=#6c8ebf;" vertex="1" parent="1">
          <mxGeometry x="420" y="300" width="100" height="50" as="geometry" />
        </mxCell>
        <mxCell id="lZY1SaBGRvof_SRD84yj-24" value="adc-studio-rpa-web" style="rounded=0;whiteSpace=wrap;html=1;fontFamily=Helvetica;fontSize=12;fillColor=#d5e8d4;strokeColor=#82b366;" vertex="1" parent="1">
          <mxGeometry x="540" y="300" width="100" height="50" as="geometry" />
        </mxCell>
        <mxCell id="lZY1SaBGRvof_SRD84yj-29" style="edgeStyle=orthogonalEdgeStyle;rounded=0;orthogonalLoop=1;jettySize=auto;html=1;exitX=0.5;exitY=1;exitDx=0;exitDy=0;fontFamily=Helvetica;fontSize=12;strokeWidth=1;" edge="1" parent="1" source="lZY1SaBGRvof_SRD84yj-26" target="lZY1SaBGRvof_SRD84yj-26">
          <mxGeometry relative="1" as="geometry" />
        </mxCell>
        <mxCell id="lZY1SaBGRvof_SRD84yj-30" value="RPA管理中心" style="text;html=1;align=center;verticalAlign=middle;resizable=0;points=[];autosize=1;strokeColor=none;fillColor=none;fontSize=14;fontFamily=Helvetica;fontStyle=1" vertex="1" parent="1">
          <mxGeometry x="360" y="360" width="100" height="20" as="geometry" />
        </mxCell>
        <mxCell id="lZY1SaBGRvof_SRD84yj-31" value="" style="rounded=1;whiteSpace=wrap;html=1;fontFamily=Helvetica;fontSize=12;dashed=1;fillColor=#f5f5f5;fontColor=#333333;strokeColor=#666666;" vertex="1" parent="1">
          <mxGeometry x="160" y="440" width="500" height="230" as="geometry" />
        </mxCell>
        <mxCell id="lZY1SaBGRvof_SRD84yj-32" value="" style="rounded=0;whiteSpace=wrap;html=1;fontFamily=Helvetica;fontSize=12;fillColor=#d5e8d4;strokeColor=#82b366;" vertex="1" parent="1">
          <mxGeometry x="180" y="460" width="150" height="150" as="geometry" />
        </mxCell>
        <mxCell id="lZY1SaBGRvof_SRD84yj-33" value="" style="rounded=0;whiteSpace=wrap;html=1;fontFamily=Helvetica;fontSize=12;fillColor=#dae8fc;strokeColor=#6c8ebf;" vertex="1" parent="1">
          <mxGeometry x="360" y="460" width="280" height="150" as="geometry" />
        </mxCell>
        <mxCell id="lZY1SaBGRvof_SRD84yj-34" value="RPA Robot" style="rounded=0;whiteSpace=wrap;html=1;fontFamily=Helvetica;fontSize=12;fillColor=#f8cecc;strokeColor=#b85450;" vertex="1" parent="1">
          <mxGeometry x="380" y="490" width="100" height="50" as="geometry" />
        </mxCell>
        <mxCell id="lZY1SaBGRvof_SRD84yj-35" value="RPA Recorder" style="rounded=0;whiteSpace=wrap;html=1;fontFamily=Helvetica;fontSize=12;fillColor=#e1d5e7;strokeColor=#9673a6;" vertex="1" parent="1">
          <mxGeometry x="510" y="490" width="100" height="50" as="geometry" />
        </mxCell>
        <mxCell id="lZY1SaBGRvof_SRD84yj-44" style="edgeStyle=orthogonalEdgeStyle;rounded=0;orthogonalLoop=1;jettySize=auto;html=1;fontFamily=Helvetica;fontSize=14;strokeWidth=1;strokeColor=none;" edge="1" parent="1" source="lZY1SaBGRvof_SRD84yj-36" target="lZY1SaBGRvof_SRD84yj-21">
          <mxGeometry relative="1" as="geometry" />
        </mxCell>
        <mxCell id="lZY1SaBGRvof_SRD84yj-36" value="RPA Robot" style="rounded=0;whiteSpace=wrap;html=1;fontFamily=Helvetica;fontSize=12;fillColor=#f8cecc;strokeColor=#b85450;" vertex="1" parent="1">
          <mxGeometry x="205" y="490" width="100" height="50" as="geometry" />
        </mxCell>
        <mxCell id="lZY1SaBGRvof_SRD84yj-37" value="RPA Agent" style="text;html=1;align=center;verticalAlign=middle;resizable=0;points=[];autosize=1;strokeColor=none;fillColor=none;fontSize=14;fontFamily=Helvetica;" vertex="1" parent="1">
          <mxGeometry x="215" y="565" width="80" height="20" as="geometry" />
        </mxCell>
        <mxCell id="lZY1SaBGRvof_SRD84yj-38" value="RPA Studio" style="text;html=1;align=center;verticalAlign=middle;resizable=0;points=[];autosize=1;strokeColor=none;fillColor=none;fontSize=14;fontFamily=Helvetica;" vertex="1" parent="1">
          <mxGeometry x="450" y="565" width="90" height="20" as="geometry" />
        </mxCell>
        <mxCell id="lZY1SaBGRvof_SRD84yj-42" value="RPA客户端" style="text;html=1;align=center;verticalAlign=middle;resizable=0;points=[];autosize=1;strokeColor=none;fillColor=none;fontSize=14;fontFamily=Helvetica;fontStyle=1" vertex="1" parent="1">
          <mxGeometry x="360" y="630" width="90" height="20" as="geometry" />
        </mxCell>
      </root>
    </mxGraphModel>
  </diagram>
</mxfile>
